<?xml version="1.0" encoding="UTF-8" standalone="no"?>
<svg
   xmlns:dc="http://purl.org/dc/elements/1.1/"
   xmlns:cc="http://creativecommons.org/ns#"
   xmlns:rdf="http://www.w3.org/1999/02/22-rdf-syntax-ns#"
   xmlns:svg="http://www.w3.org/2000/svg"
   xmlns="http://www.w3.org/2000/svg"
   viewBox="0 0 128 128"
   height="128"
   width="128"
   id="svg815"
   version="1.1">
  <metadata
     id="metadata821">
    <rdf:RDF>
      <cc:Work
         rdf:about="">
        <dc:format>image/svg+xml</dc:format>
        <dc:type
           rdf:resource="http://purl.org/dc/dcmitype/StillImage" />
        <dc:title></dc:title>
      </cc:Work>
    </rdf:RDF>
  </metadata>
  <defs
     id="defs819" />
  <g
     transform="translate(2.4905663,1.2075462)"
     id="g916">
    <ellipse
       style="fill:#000000;fill-opacity:0.94117647;stroke-width:1.03514767"
       id="path825"
       ry="55.849056"
       rx="55.773586"
       cy="62.792454"
       cx="61.509434" />
    <path
       style="opacity:1;fill:#ffffff;fill-opacity:1;stroke-width:0.401741"
       d="m 32.90625,41.056641 c -0.347253,0.004 -0.694358,0.0164 -1.041016,0.03711 h -0.205078 v 0.0078 c -11.45598,0.66027 -20.409158,10.140245 -20.414062,21.615235 0.01421,11.468203 8.964849,20.937795 20.414062,21.597656 v 0.04492 h 0.892578 c 0.117789,0.0068 0.235631,0.01268 0.353516,0.01758 0.164124,-0.004 3.42389,0.204257 5.402344,0.08984 1.975448,-0.114239 5.30526,-2.149413 8.109375,-4.640625 2.804115,-2.491213 8.37958,-6.565732 15.648437,-6.566406 5.022972,0.112833 8.13531,1.195862 13.927735,6.033203 5.792426,4.837341 9.792968,5.066406 9.792968,5.066406 0.372496,0.02853 4.745668,0.04742 5.119141,0.05664 11.96329,-1.21e-4 21.66112,-9.698823 21.66016,-21.66211 -0.0103,-11.778667 -9.43094,-21.3902 -21.207035,-21.636718 V 41.09375 H 90.90625 33.652344 C 33.403878,41.07709 33.155143,41.06472 32.90625,41.056641 Z M 99.421875,53.771484 A 13.181538,13.804288 60.323215 0 1 93.732422,71.632812 13.181538,13.804288 60.323215 0 1 75.470703,67.417969 Z m -74.111328,0.02344 23.951172,13.646484 A 13.804288,13.181538 29.676785 0 1 31,71.65625 13.804288,13.181538 29.676785 0 1 25.310547,53.794922 Z"
       id="path825-1" />
  </g>
</svg>
